<?xml version="1.0" encoding="iso-8859-1"?>
<!-- Generator: Adobe Illustrator 19.0.0, SVG Export Plug-In . SVG Version: 6.00 Build 0)  -->
<svg version="1.1" id="Layer_1" xmlns="http://www.w3.org/2000/svg" xmlns:xlink="http://www.w3.org/1999/xlink" x="0px" y="0px"
	 viewBox="0 0 512 512" style="enable-background:new 0 0 512 512;" xml:space="preserve">
<g>
	<g>
		<g>
			<path d="M223.8,223.771l72.733-17.158c3.156-0.983,35.744-24.385,35.744-24.385v80.211h116.056v-83.646h0.001
				c0-40.386-32.739-73.125-73.125-73.125h-23.673c-0.562,0-1.121,0.02-1.676,0.05c-5.767-0.371-11.677,1.459-16.355,5.579
				l-54.79,48.178l-68.324,21.217c-11.899,3.703-18.539,16.349-14.835,28.243C199.258,220.833,211.901,227.474,223.8,223.771z" fill="#29d791"/>
			<path d="M94.768,150.19c3.136,5.073,8.563,7.863,14.119,7.863c2.975,0,5.987-0.802,8.704-2.481
				c7.789-4.815,10.2-15.034,5.383-22.823c-3.616-5.847-1.863-14.053,1.454-26.873c3.564-13.774,7.998-30.916-1.293-46.593
				c-4.668-7.876-14.836-10.479-22.719-5.809c-7.878,4.669-10.479,14.841-5.809,22.719c2.26,3.812-0.051,12.74-2.284,21.376
				C88.367,112.857,83.444,131.88,94.768,150.19z" fill="#29d791"/>
			<path d="M147.855,150.189c3.136,5.073,8.564,7.864,14.12,7.864c2.975,0,5.987-0.801,8.703-2.479
				c7.79-4.815,10.201-15.035,5.385-22.823c-3.616-5.848-1.864-14.054,1.453-26.875c3.564-13.773,7.998-30.915-1.292-46.591
				c-4.667-7.876-14.841-10.481-22.719-5.811s-10.48,14.841-5.811,22.719c2.261,3.813-0.05,12.742-2.283,21.377
				C141.457,112.857,136.535,131.88,147.855,150.189z" fill="#29d791"/>
			<path d="M16.582,391.851C7.424,391.851,0,399.276,0,408.433s7.424,16.582,16.582,16.582h20.576l28.334-33.164H16.582z"/>
			<path d="M495.418,391.851H163.49l-7.687,25.756c-0.762,2.574-1.754,5.043-2.947,7.408h342.563
				c9.158,0,16.582-7.424,16.582-16.582S504.576,391.851,495.418,391.851z" fill="#29d791"/>
			<path d="M160.844,237.18c-9.158,0-16.582,7.424-16.582,16.582c0,3.38,1.017,6.521,2.754,9.143
				c2.969,4.48,8.051,7.439,13.828,7.439h18.512c5.973,0,11.193-3.169,14.112-7.906c1.556-2.526,2.47-5.491,2.47-8.676
				c0-9.158-7.424-16.582-16.582-16.582H160.844z" fill="#29d791"/>
			<path d="M232.352,237.18c-9.158,0-16.582,7.424-16.582,16.582c0,3.185,0.913,6.15,2.47,8.676
				c2.919,4.738,8.138,7.906,14.112,7.906h18.512c5.973,0,11.193-3.169,14.112-7.906c1.557-2.526,2.47-5.491,2.47-8.676
				c0-9.158-7.424-16.582-16.582-16.582H232.352z" fill="#29d791"/>
			<path d="M268.216,95.742c8.921,12.232,25.326,15.775,38.34,8.932c2.897-2.114,6.243-4.553,10.124-7.384
				c3.879-2.829,7.223-5.268,10.12-7.38c10.493-10.301,12.132-27.004,3.211-39.236l-9.552-13.099
				c-9.807-13.447-28.658-16.398-42.106-6.591l-13.099,9.553c-13.447,9.807-16.398,28.658-6.591,42.106L268.216,95.742z" fill="#29d791"/>
			<path d="M41.677,354.822c3.587,0,7.727-0.001,12.53-0.001c4.801,0.001,8.939,0.001,12.525,0.001
				c14.548-2.139,25.714-14.668,25.714-29.809v-16.212c0-16.644-13.492-30.136-30.137-30.136H46.1
				c-16.644,0-30.136,13.492-30.136,30.136v16.212C15.964,340.152,27.131,352.682,41.677,354.822z" fill="#29d791"/>
			<path d="M457.174,361.028c21.12,0,38.242-17.121,38.242-38.24c0.002-21.12-17.119-38.241-38.239-38.241H154.481
				c-15.869,0-29.48,9.668-35.266,23.435c-1.047,1.684-1.907,3.518-2.496,5.51l-24.055,80.592l-47.416,55.497
				c-8.099,9.468-6.989,23.707,2.478,31.806c9.467,8.101,23.707,6.991,31.807-2.476l49.468-57.903
				c0.381-0.444,0.72-0.909,1.06-1.373c2.022-2.349,3.603-5.138,4.539-8.304l15.105-50.609c1.565,0.195,3.156,0.306,4.773,0.306
				H457.174z" fill="#29d791"/>
		</g>
	</g>
</g>
<g>
</g>
<g>
</g>
<g>
</g>
<g>
</g>
<g>
</g>
<g>
</g>
<g>
</g>
<g>
</g>
<g>
</g>
<g>
</g>
<g>
</g>
<g>
</g>
<g>
</g>
<g>
</g>
<g>
</g>
</svg>
